<?xml version="1.0" encoding="iso-8859-1"?>
<!-- Uploaded to: SVG Repo, www.svgrepo.com, Generator: SVG Repo Mixer Tools -->
<svg xmlns="http://www.w3.org/2000/svg" xmlns:xlink="http://www.w3.org/1999/xlink" version="1.1" id="Layer_1"  viewBox="0 0 502 502" xml:space="preserve" width="512" height="512">
<g>
	<g>
		<path style="fill:#C69C6D;" d="M476.667,417H25.333C16.865,417,10,410.135,10,401.667V350h482v51.667    C492,410.135,485.135,417,476.667,417z"/>
		<path style="fill:#C69C6D;" d="M10,247.167C10,145.454,92.454,63,194.167,63h113.667C409.546,63,492,145.454,492,247.167H10z"/>
		<g>
			<rect x="32.068" y="298.333" style="fill:#C1272D;" width="437.932" height="51.667"/>
			<rect x="32.068" y="247" style="fill:#C1272D;" width="437.932" height="51.333"/>
		</g>
		<polygon style="fill:#FBB03B;" points="233,298.309 133.117,383.155 33.233,298.309   "/>
		<polygon style="fill:#FBB03B;" points="469.253,298.309 303.627,439 138,298.309   "/>
	</g>
	<g>
		<path d="M476.667,426.928c13.969,0,25.333-11.293,25.333-25.261V350c0-5.523-4.477-10-10-10h-12v-41.667v-41.167h12    c5.523,0,10-4.477,10-10C502,140.103,414.897,53,307.833,53H194.167C87.103,53,0,140.103,0,247.167c0,5.523,4.477,10,10,10h12.068    v41.167V340H10c-5.523,0-10,4.477-10,10v51.667C0,415.635,11.365,427,25.333,427h248.72l23.099,19.622    c1.867,1.585,4.17,2.378,6.474,2.378s4.607-0.793,6.474-2.378l23.269-19.694H476.667z M435.62,340L460,319.29V340H435.62z     M133.117,370.034l-72.636-61.7h73.874l35.699,30.324L133.117,370.034z M194.167,73h113.667    c92.677,0,168.68,72.769,173.883,164.167H20.284C25.486,145.769,101.489,73,194.167,73z M42.068,288.333v-31.167H460v31.143    L42.068,288.333z M42.068,318.934L66.867,340H42.068V318.934z M25.333,407c-2.941,0-5.333-2.393-5.333-5.333V360h70    c0.131,0,0.259-0.015,0.389-0.02l36.254,30.796c1.867,1.586,4.17,2.378,6.474,2.378c2.303,0,4.607-0.793,6.474-2.378L175.822,360    h19.357l55.33,47H25.333z M303.626,425.879L165.247,308.333h276.758L303.626,425.879z M482,401.667    c0,2.941-2.393,5.333-5.333,5.333H356.745l55.33-47H482V401.667z"/>
		<path d="M119.429,115.429l-2.5,2.5c-3.905,3.905-3.905,10.237,0,14.143c1.953,1.953,4.512,2.929,7.071,2.929    s5.119-0.976,7.071-2.929l2.5-2.5c3.905-3.905,3.905-10.237,0-14.143C129.666,111.523,123.334,111.523,119.429,115.429z"/>
		<path d="M362.071,101.929c-3.905-3.905-10.237-3.905-14.143,0c-3.905,3.905-3.905,10.237,0,14.143l2.5,2.5    c1.953,1.953,4.512,2.929,7.071,2.929s5.119-0.976,7.071-2.929c3.905-3.905,3.905-10.237,0-14.143L362.071,101.929z"/>
		<path d="M246.429,131.429l-6.5,6.5c-3.905,3.905-3.905,10.237,0,14.143c1.953,1.953,4.512,2.929,7.071,2.929    s5.119-0.976,7.071-2.929l6.5-6.5c3.905-3.905,3.905-10.237,0-14.143C256.666,127.523,250.334,127.523,246.429,131.429z"/>
		<path d="M332.071,136.929c-3.905-3.905-10.237-3.905-14.143,0c-3.905,3.905-3.905,10.237,0,14.143l7.5,7.5    c1.953,1.953,4.512,2.929,7.071,2.929s5.119-0.976,7.071-2.929c3.905-3.905,3.905-10.237,0-14.143L332.071,136.929z"/>
		<path d="M207,90h-11c-5.523,0-10,4.477-10,10s4.477,10,10,10h11c5.523,0,10-4.477,10-10S212.523,90,207,90z"/>
		<path d="M299,81c-5.523,0-10,4.477-10,10v6c0,5.523,4.477,10,10,10s10-4.477,10-10v-6C309,85.477,304.523,81,299,81z"/>
		<path d="M177,137h-3c-5.523,0-10,4.477-10,10s4.477,10,10,10h3c5.523,0,10-4.477,10-10S182.523,137,177,137z"/>
		<path d="M381.719,331.643c-3.511-4.263-9.813-4.875-14.076-1.362l-35,28.823c-4.263,3.511-4.874,9.813-1.362,14.076    c1.978,2.401,4.839,3.644,7.725,3.644c2.237,0,4.489-0.748,6.351-2.281l35-28.823C384.62,342.208,385.23,335.906,381.719,331.643z    "/>
		<path d="M303.643,382.987l-4,3.294c-4.263,3.511-4.874,9.813-1.362,14.076c1.977,2.401,4.839,3.644,7.725,3.644    c2.237,0,4.489-0.748,6.351-2.281l4-3.294c4.263-3.511,4.874-9.813,1.362-14.076C314.209,380.086,307.908,379.475,303.643,382.987    z"/>
	</g>
</g>















</svg>