<?xml version="1.0" ?>
<!DOCTYPE svg  PUBLIC '-//W3C//DTD SVG 1.1//EN'  'http://www.w3.org/Graphics/SVG/1.1/DTD/svg11.dtd'>
<!-- Uploaded to: SVG Repo, www.svgrepo.com, Generator: SVG Repo Mixer Tools -->
<svg fill="#000000" width="800px" height="800px" viewBox="0 0 64 64" style="fill-rule:evenodd;clip-rule:evenodd;stroke-linejoin:round;stroke-miterlimit:2;" version="1.1" xml:space="preserve" xmlns="http://www.w3.org/2000/svg" xmlns:serif="http://www.serif.com/" xmlns:xlink="http://www.w3.org/1999/xlink">
<g transform="matrix(1,0,0,1,-384,-96)">
<g id="Icon">
<path d="M407.906,137.535C408.139,137.516 408.358,137.416 408.525,137.253L425.016,121.1C425.183,120.936 425.287,120.72 425.311,120.487C425.377,119.843 425.411,119.189 425.411,118.527C425.411,108.001 416.865,99.455 406.339,99.455C395.813,99.455 387.267,108.001 387.267,118.527C387.267,129.053 395.813,137.599 406.339,137.599C406.866,137.599 407.389,137.577 407.906,137.535Z" style="fill:rgb(248,172,58);"/>
<path d="M387.322,119.994C388.073,110.152 396.306,102.389 406.339,102.389C416.371,102.389 424.605,110.152 425.355,119.993C425.392,119.509 425.411,119.02 425.411,118.527C425.411,108.001 416.865,99.455 406.339,99.455C395.813,99.455 387.267,108.001 387.267,118.527C387.267,119.02 387.285,119.51 387.322,119.994Z" style="fill:rgb(243,148,4);"/>
<g transform="matrix(1.09106,0,0,1.09106,64.6335,-4.73604)">
<path d="M301.716,112.782L301.102,114.782C300.953,115.265 301.225,115.778 301.709,115.927C302.192,116.076 302.705,115.804 302.854,115.32L303.468,113.32C303.617,112.836 303.345,112.323 302.861,112.175C302.378,112.026 301.865,112.298 301.716,112.782Z" style="fill:rgb(99,48,1);"/>
</g>
<g transform="matrix(1.09106,0,0,1.09106,63.0699,-14.6071)">
<path d="M306.182,130.372L306.97,133.198C307.105,133.685 307.611,133.97 308.099,133.835C308.586,133.699 308.871,133.193 308.735,132.706L307.948,129.88C307.812,129.393 307.307,129.107 306.819,129.243C306.332,129.379 306.047,129.885 306.182,130.372Z" style="fill:rgb(99,48,1);"/>
</g>
<g transform="matrix(1.09106,0,0,1.09106,65.0912,-12.7023)">
<path d="M317.551,110.468L318.907,112.331C319.205,112.74 319.778,112.831 320.187,112.533C320.596,112.236 320.687,111.662 320.389,111.253L319.033,109.39C318.736,108.981 318.162,108.89 317.753,109.188C317.344,109.486 317.253,110.059 317.551,110.468Z" style="fill:rgb(99,48,1);"/>
</g>
<g transform="matrix(1.09106,0,0,1.09106,64.9709,-8.62024)">
<path d="M324.703,113.237L322.562,114.218C322.103,114.428 321.9,114.973 322.111,115.433C322.322,115.893 322.866,116.095 323.326,115.884L325.466,114.903C325.926,114.692 326.129,114.148 325.918,113.688C325.707,113.228 325.163,113.026 324.703,113.237Z" style="fill:rgb(99,48,1);"/>
</g>
<g transform="matrix(1.09106,0,0,1.09106,60.7823,-12.2643)">
<path d="M313.587,107.551L314.846,110.31C315.056,110.77 315.6,110.973 316.061,110.763C316.521,110.553 316.724,110.009 316.514,109.549L315.255,106.79C315.045,106.329 314.501,106.126 314.04,106.336C313.58,106.546 313.377,107.09 313.587,107.551Z" style="fill:rgb(99,48,1);"/>
</g>
<g transform="matrix(1.09106,0,0,1.09106,65.9934,-13.0483)">
<path d="M312.043,128.688L310.274,130.979C309.965,131.379 310.04,131.955 310.44,132.264C310.84,132.574 311.416,132.499 311.726,132.099L313.494,129.808C313.803,129.408 313.729,128.832 313.328,128.523C312.928,128.213 312.352,128.288 312.043,128.688Z" style="fill:rgb(99,48,1);"/>
</g>
<g transform="matrix(1.09106,0,0,1.09106,63.0912,-7.8216)">
<path d="M305.083,107.633L305.083,109.929C305.083,110.435 305.494,110.846 306,110.846C306.506,110.846 306.917,110.435 306.917,109.929L306.917,107.633C306.917,107.127 306.506,106.717 306,106.717C305.494,106.717 305.083,107.127 305.083,107.633Z" style="fill:rgb(99,48,1);"/>
</g>
<circle cx="425.804" cy="138.382" r="19.072" style="fill:rgb(248,172,58);"/>
<path d="M411.395,125.892C414.742,122.987 419.11,121.228 423.886,121.228C434.412,121.228 442.958,129.774 442.958,140.3C442.958,145.076 441.199,149.444 438.294,152.791C442.325,149.292 444.876,144.133 444.876,138.382C444.876,127.856 436.33,119.31 425.804,119.31C420.053,119.31 414.894,121.861 411.395,125.892Z" style="fill:rgb(243,148,4);"/>
<g transform="matrix(-1.30529e-16,1.54294,-2.20765,-1.36579e-15,678.638,-351.604)">
<path d="M310.647,111.544L312.117,120.565C312.173,120.912 312.578,121.179 313.076,121.199C313.574,121.219 314.02,120.986 314.133,120.646C314.679,119.004 315.481,116.59 315.481,116.59C315.562,116.346 315.345,116.103 314.996,116.046C314.648,115.989 314.299,116.141 314.218,116.385L313.227,119.37L311.736,110.225C311.679,109.874 311.265,109.605 310.76,109.591C310.255,109.576 309.81,109.822 309.713,110.168L307.84,116.827C307.77,117.072 307.999,117.31 308.35,117.359C308.701,117.407 309.042,117.247 309.111,117.002L310.647,111.544Z" style="fill:rgb(99,48,1);"/>
</g>
<g transform="matrix(-1.30529e-16,1.54294,-2.20765,-1.36579e-15,678.638,-351.604)">
<path d="M317.379,109.143L318.191,112.029C318.26,112.275 318.6,112.435 318.951,112.386C319.302,112.338 319.531,112.1 319.462,111.855C319.462,111.855 318.81,109.532 318.371,107.974C318.276,107.636 317.85,107.393 317.357,107.396C316.863,107.399 316.443,107.647 316.357,107.986C315.953,109.571 315.347,111.951 315.347,111.951C315.284,112.197 315.519,112.432 315.872,112.476C316.224,112.52 316.561,112.356 316.623,112.109L317.379,109.143Z" style="fill:rgb(99,48,1);"/>
</g>
<g transform="matrix(-1.30529e-16,1.54294,-2.20765,-1.36579e-15,678.638,-351.604)">
<path d="M324.855,112.16L325.55,117.975C325.58,118.224 325.894,118.41 326.25,118.389C326.607,118.368 326.872,118.149 326.842,117.9C326.842,117.9 326.294,113.322 325.951,110.451C325.908,110.088 325.483,109.806 324.962,109.794C324.442,109.783 323.992,110.046 323.916,110.405L322.074,119.096L320.744,116.435C320.626,116.199 320.256,116.075 319.918,116.157C319.58,116.24 319.402,116.498 319.52,116.734C319.52,116.734 320.565,118.824 321.214,120.122C321.37,120.433 321.809,120.63 322.278,120.599C322.748,120.568 323.126,120.317 323.195,119.991L324.855,112.16Z" style="fill:rgb(99,48,1);"/>
</g>
<circle cx="425.804" cy="138.382" r="7.027" style="fill:white;"/>
<circle cx="406.339" cy="118.527" r="7.027" style="fill:white;"/>
</g>
</g>
</svg>