<?xml version="1.0" encoding="iso-8859-1"?>
<!-- Uploaded to: SVG Repo, www.svgrepo.com, Generator: SVG Repo Mixer Tools -->
<svg height="800px" width="800px" version="1.1" id="Layer_1" xmlns="http://www.w3.org/2000/svg" xmlns:xlink="http://www.w3.org/1999/xlink" 
	 viewBox="0 0 512 512" xml:space="preserve">
<g>
	<path style="fill:#FFE060;" d="M436.133,258.891c0,3.683,3.04,6.673,6.792,6.673h27.172c3.752,0,6.794-2.988,6.794-6.673V133.445
		c0-3.683-3.042-6.672-6.794-6.672h-27.172c-3.752,0-6.792,2.987-6.792,6.672V258.891z"/>
	<path style="fill:#FFE060;" d="M399.45,227.629c0,3.684,3.042,6.674,6.793,6.674h27.172c3.751,0,6.794-2.988,6.794-6.674V102.184
		c0-3.686-3.043-6.672-6.794-6.672h-27.172c-3.751,0-6.793,2.984-6.793,6.672V227.629z"/>
	<path style="fill:#FFE060;" d="M245.925,258.891c0,3.683-3.043,6.673-6.793,6.673H211.96c-3.751,0-6.793-2.988-6.793-6.673V133.445
		c0-3.683,3.042-6.672,6.793-6.672h27.173c3.751,0,6.793,2.987,6.793,6.672V258.891z"/>
	<path style="fill:#FFE060;" d="M282.607,227.629c0,3.684-3.042,6.674-6.793,6.674h-27.173c-3.752,0-6.792-2.988-6.792-6.674
		V102.184c0-3.686,3.04-6.672,6.792-6.672h27.173c3.751,0,6.793,2.984,6.793,6.672V227.629z"/>
	<path style="fill:#FFE060;" d="M360.05,227.629c0,3.684,3.04,6.674,6.793,6.674h27.172c3.753,0,6.794-2.988,6.794-6.674V80.83
		c0-3.684-3.041-6.673-6.794-6.673h-27.172c-3.753,0-6.793,2.987-6.793,6.673L360.05,227.629L360.05,227.629z"/>
	<path style="fill:#FFE060;" d="M322.008,218.999c0,3.683-3.044,6.673-6.794,6.673h-27.173c-3.752,0-6.793-2.988-6.793-6.673V72.202
		c0-3.684,3.041-6.674,6.793-6.674h27.173c3.75,0,6.794,2.988,6.794,6.674V218.999z"/>
	<path style="fill:#FFE060;" d="M361.408,275.833c0,3.684-3.041,6.673-6.794,6.673h-27.172c-3.753,0-6.793-2.987-6.793-6.673V89.003
		c0-3.686,3.04-6.673,6.793-6.673h27.172c3.753,0,6.794,2.985,6.794,6.673V275.833z"/>
</g>
<path style="fill:#C14616;" d="M142.451,341.281h-13.772l-21.61-21.798c-3.448-3.476-9.038-3.476-12.488,0l-21.611,21.798H59.201
	c-12.192,0-22.075,9.969-22.075,22.265c0,12.297,9.883,22.265,22.075,22.265h83.25c12.192,0,22.075-9.967,22.075-22.265
	C164.524,351.25,154.642,341.281,142.451,341.281z"/>
<path style="fill:#FFE060;" d="M25.547,383.943v47.641c0,8.221,6.607,14.889,14.76,14.889h121.037c8.153,0,14.76-6.668,14.76-14.889
	v-47.641H25.547z"/>
<path style="opacity:0.1;enable-background:new    ;" d="M58.325,431.584v-47.641H25.547v47.641c0,8.221,6.607,14.889,14.76,14.889
	h32.779C64.933,446.473,58.325,439.805,58.325,431.584z"/>
<g>
	<path style="fill:#FFEA92;" d="M427.399,289.185c0,3.876,3.198,7.021,7.146,7.021h28.581c3.949,0,7.15-3.145,7.15-7.021V157.224
		c0-3.874-3.201-7.02-7.15-7.02h-28.581c-3.947,0-7.146,3.145-7.146,7.02V289.185z"/>
	<path style="fill:#FFEA92;" d="M255.125,289.185c0,3.876-3.198,7.021-7.146,7.021h-28.583c-3.946,0-7.145-3.145-7.145-7.021
		V157.224c0-3.874,3.199-7.02,7.145-7.02h28.583c3.948,0,7.146,3.145,7.146,7.02V289.185z"/>
	<path style="fill:#FFEA92;" d="M297.947,275.147c0,3.878-3.202,7.019-7.146,7.019h-28.584c-3.946,0-7.145-3.141-7.145-7.019
		V143.185c0-3.876,3.199-7.02,7.145-7.02H290.8c3.944,0,7.146,3.144,7.146,7.02v131.962H297.947z"/>
	<path style="fill:#FFEA92;" d="M384.557,275.147c0,3.878,3.199,7.019,7.147,7.019h28.583c3.947,0,7.146-3.141,7.146-7.019V143.185
		c0-3.876-3.199-7.02-7.146-7.02h-28.583c-3.948,0-7.147,3.144-7.147,7.02V275.147z"/>
	<path style="fill:#FFEA92;" d="M341.194,318.911c0,3.879-3.201,7.02-7.145,7.02h-28.585c-3.948,0-7.148-3.141-7.148-7.02V164.49
		c0-3.877,3.201-7.02,7.148-7.02h28.585c3.943,0,7.145,3.143,7.145,7.02V318.911z"/>
	<path style="fill:#FFEA92;" d="M341.704,310.528c0,3.877,3.199,7.021,7.145,7.021h28.585c3.944,0,7.145-3.144,7.145-7.021V156.106
		c0-3.877-3.201-7.02-7.145-7.02h-28.585c-3.946,0-7.145,3.143-7.145,7.02V310.528z"/>
</g>
<path style="fill:#EF645E;" d="M245.117,446.473c-6.717,0-12.628-4.679-14.054-11.126l-52.605-237.834
	c-0.928-4.196,0.113-8.519,2.855-11.862c2.704-3.297,6.89-5.262,11.196-5.262h45.889c4.256,0,7.826,3.237,8.281,7.504
	c2.286,21.463,12.251,41.64,28.057,56.806c17.825,17.105,41.369,26.527,66.291,26.527c24.924,0,48.468-9.422,66.291-26.527
	c15.808-15.167,25.772-35.343,28.06-56.806c0.453-4.267,4.025-7.504,8.28-7.504h45.887c4.36,0,8.435,1.909,11.179,5.242
	c2.742,3.328,3.794,7.641,2.886,11.832l-51.687,237.833c-1.406,6.475-7.321,11.175-14.063,11.175H245.117V446.473z"/>
<g style="opacity:0.1;">
	<path d="M263.908,435.346l-52.605-237.833c-0.928-4.196,0.113-8.519,2.855-11.862c2.704-3.297,6.89-5.262,11.197-5.262h-32.845
		c-4.307,0-8.493,1.965-11.196,5.262c-2.742,3.342-3.783,7.665-2.855,11.862l52.605,237.833c1.426,6.447,7.336,11.126,14.054,11.126
		h32.844C271.246,446.473,265.335,441.794,263.908,435.346z"/>
</g>
<polygon style="fill:#FFAB5F;" points="218.481,378.455 464.277,378.455 473.486,336.081 209.109,336.081 "/>
<path style="fill:#FFE060;" d="M397.294,354.49c0,31.344-25.191,56.754-56.266,56.754c-31.074,0-56.266-25.409-56.266-56.754
	c0-31.341,25.19-56.748,56.266-56.748C372.102,297.742,397.294,323.15,397.294,354.49z"/>
<path style="opacity:0.1;enable-background:new    ;" d="M317.502,354.49c0-25.597,16.806-47.228,39.896-54.3
	c-5.18-1.586-10.675-2.448-16.369-2.448c-31.074,0-56.266,25.408-56.266,56.748c0,31.344,25.19,56.754,56.266,56.754
	c5.695,0,11.19-0.861,16.369-2.448C334.308,401.723,317.502,380.09,317.502,354.49z"/>
<path style="fill:#E5C74A;" d="M193.818,388.409c0,8.221-6.609,14.888-14.76,14.888H22.594c-8.152,0-14.76-6.666-14.76-14.888
	v-2.979c0-8.219,6.609-14.887,14.76-14.887h156.464c8.151,0,14.76,6.668,14.76,14.887V388.409z"/>
<path style="opacity:0.1;enable-background:new    ;" d="M51.176,388.409v-2.979c0-8.219,6.609-14.887,14.761-14.887H22.594
	c-8.152,0-14.76,6.668-14.76,14.887v2.979c0,8.221,6.609,14.888,14.76,14.888h43.343C57.785,403.296,51.176,396.63,51.176,388.409z"
	/>
<path d="M179.058,362.71h-6.721c-0.443-16.211-13.674-29.262-29.886-29.262h-10.507l-19.312-19.48
	c-3.15-3.176-7.342-4.926-11.805-4.926c-4.463,0-8.655,1.749-11.806,4.927l-19.314,19.479H59.201
	c-16.213,0-29.443,13.052-29.886,29.262h-6.721C10.136,362.71,0,372.902,0,385.43v2.979c0,10.844,7.594,19.931,17.714,22.182v20.994
	c0,12.529,10.136,22.721,22.594,22.721h121.037c12.458,0,22.594-10.192,22.594-22.721v-20.994
	c10.119-2.25,17.714-11.338,17.714-22.182v-2.979C201.651,372.902,191.515,362.71,179.058,362.71z M59.201,349.114h31.974
	c4.326,0,7.834-3.507,7.834-7.834c0-4.136-3.207-7.513-7.268-7.804l8.404-8.476c0.383-0.388,0.982-0.386,1.364-0.002l21.61,21.798
	c1.471,1.484,3.473,2.319,5.563,2.319h13.772c7.574,0,13.768,6.028,14.199,13.596H45.002
	C45.432,355.142,51.626,349.114,59.201,349.114z M185.985,388.409c0,3.89-3.108,7.055-6.927,7.055H151.44
	c-4.326,0-7.834,3.506-7.834,7.833c0,4.327,3.508,7.834,7.834,7.834h16.831v20.454c0,3.891-3.109,7.055-6.928,7.055H40.307
	c-3.819,0-6.927-3.164-6.927-7.055V411.13h80.461c4.326,0,7.834-3.508,7.834-7.834c0-4.326-3.507-7.833-7.834-7.833H22.594
	c-3.82,0-6.928-3.165-6.928-7.055v-2.979c0-3.89,3.108-7.054,6.928-7.054h156.464c3.819,0,6.927,3.164,6.927,7.054V388.409z"/>
<path d="M507.006,180.652c-4.237-5.145-10.515-8.095-17.226-8.095h-5.057v-39.112c0-7.998-6.561-14.505-14.626-14.505h-22.055
	v-16.756c0-7.998-6.561-14.505-14.626-14.505h-24.772V80.83c0-7.998-6.561-14.505-14.628-14.505h-27.173
	c-5.773,0-10.76,3.342-13.136,8.17h-23.865v-2.295c0-7.999-6.561-14.506-14.626-14.506h-27.173c-8.066,0-14.626,6.508-14.626,14.506
	v15.478h-24.773c-8.065,0-14.625,6.508-14.625,14.505v16.756h-22.058c-8.065,0-14.626,6.508-14.626,14.505v39.112h-4.589
	c-6.629,0-13.078,3.038-17.252,8.126c-4.276,5.212-5.897,11.963-4.447,18.523l52.605,237.832
	c2.214,10.005,11.341,17.267,21.703,17.267h192.744c10.401,0,19.534-7.294,21.716-17.345l33.745-155.276
	c0.92-4.228-1.764-8.399-5.99-9.317c-4.232-0.914-8.399,1.764-9.318,5.99l-10.842,49.889h-67.598
	c-10.004-22.566-32.473-38.337-58.546-38.337c-26.071,0-48.542,15.773-58.546,38.337h-67.085L186.342,195.82
	c-0.412-1.861,0.037-3.708,1.262-5.203c1.213-1.48,3.183-2.397,5.141-2.397h45.889c0.25,0,0.461,0.214,0.491,0.498
	c2.482,23.299,13.285,45.186,30.421,61.63c19.292,18.512,44.762,28.709,71.717,28.709c26.955,0,52.424-10.196,71.716-28.709
	c17.136-16.44,27.942-38.329,30.424-61.63c0.03-0.283,0.24-0.498,0.491-0.498h45.887c2.012,0,3.883,0.869,5.134,2.389
	c1.226,1.488,1.679,3.331,1.277,5.188l-11.815,54.36c-0.918,4.228,1.764,8.399,5.991,9.317c4.234,0.914,8.4-1.764,9.318-5.99
	l11.815-54.362C512.921,192.575,511.282,185.842,507.006,180.652z M404.486,343.914h59.515l-5.805,26.71h-54.865
	c1.336-5.239,2.029-10.653,2.029-16.133C405.36,350.887,405.053,347.358,404.486,343.914z M285.505,386.289
	c10.427,18.488,29.638,31.318,51.878,32.662v0.086c1.22,0.07,2.447,0.114,3.684,0.114c7.13,0,14.134-1.171,20.821-3.484
	c4.09-1.414,6.259-5.876,4.845-9.967c-1.414-4.089-5.872-6.262-9.967-4.845c-2.904,1.004-5.893,1.713-8.934,2.141v-0.048
	c-2.171,0.299-4.366,0.461-6.57,0.461c-26.707,0-48.433-21.945-48.433-48.919c0-26.972,21.727-48.915,48.433-48.915
	c26.706,0,48.432,21.943,48.432,48.915c0,9.175-2.527,18.116-7.308,25.857c-2.274,3.679-1.134,8.508,2.547,10.78
	c3.68,2.272,8.508,1.133,10.781-2.548c0.465-0.755,0.91-1.52,1.344-2.29h57.735l-10.289,47.345
	c-0.621,2.853-3.375,5.005-6.408,5.005H245.352c-3.024,0-5.777-2.143-6.406-4.985l-10.476-47.364L285.505,386.289L285.505,386.289z
	 M278.038,343.914c-0.566,3.444-0.875,6.974-0.875,10.576c0,5.568,0.703,10.974,2.025,16.133h-54.183l-5.908-26.71H278.038z
	 M212.999,143.814v-9.207h21.017v7.765h-14.621C217.106,142.371,214.942,142.898,212.999,143.814z M247.292,175.081
	c-2.511-1.6-5.482-2.524-8.659-2.524h-18.55v-14.519h27.209L247.292,175.081L247.292,175.081z M249.684,135.116v-31.771h23.732
	v24.988h-11.198C256.962,128.332,252.351,131.042,249.684,135.116z M290.114,247.116c-3.408-2.436-6.656-5.129-9.722-8.07
	c-7.237-6.943-13.135-15.031-17.486-23.835v-71.213h27.208V247.116z M290.801,128.332h-1.72V73.361h25.094v76.275h-8.396v-6.452
	C305.78,134.995,299.061,128.332,290.801,128.332z M333.36,263.033c-9.478-0.834-18.643-3.173-27.211-6.881v-90.85h27.211V263.033z
	 M335.387,149.637h-5.546V90.162h23.735v51.091h-4.727C342.93,141.255,337.818,144.684,335.387,149.637z M376.745,255.995
	c-8.562,3.751-17.726,6.139-27.208,7.013V156.921h27.208V255.995z M376.865,141.255h-7.624V89.003c0-2.167-0.496-4.218-1.359-6.068
	v-0.942h25.093v46.341h-1.272C384.107,128.332,377.826,133.975,376.865,141.255z M419.601,215.248
	c-4.35,8.791-10.244,16.866-17.471,23.8c-3.07,2.946-6.326,5.643-9.741,8.082V143.999h27.211V215.248z M432.375,134.447
	c-2.722-3.702-7.121-6.115-12.086-6.115h-11.646v-24.988h23.733L432.375,134.447L432.375,134.447z M462.443,172.557h-18.55
	c-3.179,0-6.15,0.925-8.66,2.526v-17.045h27.21L462.443,172.557L462.443,172.557z M469.057,143.59
	c-1.821-0.782-3.825-1.219-5.932-1.219H448.04v-7.765h21.016v8.984H469.057z"/>
</svg>