<?xml version="1.0" ?>
<!DOCTYPE svg  PUBLIC '-//W3C//DTD SVG 1.1//EN'  'http://www.w3.org/Graphics/SVG/1.1/DTD/svg11.dtd'>
<!-- Uploaded to: SVG Repo, www.svgrepo.com, Generator: SVG Repo Mixer Tools -->
<svg fill="#000000" width="800px" height="800px" viewBox="0 0 64 64" style="fill-rule:evenodd;clip-rule:evenodd;stroke-linejoin:round;stroke-miterlimit:2;" version="1.1" xml:space="preserve" xmlns="http://www.w3.org/2000/svg" xmlns:serif="http://www.serif.com/" xmlns:xlink="http://www.w3.org/1999/xlink">
<g transform="matrix(1,0,0,1,-384,-192)">
<g id="Icon">
<path d="M391.516,206.798L391.435,206.91C391.352,207.042 391.304,207.188 391.289,207.336L391.287,207.357C391.275,207.505 391.295,207.658 391.352,207.803L391.408,207.923L415.402,252.708L415.499,252.857L415.624,252.988L415.767,253.092L415.811,253.117C415.953,253.193 416.104,253.231 416.255,253.235L416.313,253.235C416.463,253.231 416.614,253.193 416.756,253.117L416.904,253.02L417.036,252.895L417.14,252.753L417.165,252.708L441.159,207.923L441.215,207.803C441.272,207.658 441.293,207.505 441.28,207.357L441.278,207.336C441.263,207.188 441.215,207.042 441.132,206.91L441.053,206.8C435.397,199.784 426.406,195.236 416.284,195.236C406.162,195.236 397.172,199.783 391.516,206.798Z" style="fill:rgb(248,172,58);"/>
<path d="M439.797,205.342L414.794,251.573L415.402,252.708L415.499,252.857L415.624,252.988L415.767,253.092L415.811,253.117C415.953,253.193 416.104,253.231 416.255,253.235L416.313,253.235C416.463,253.231 416.614,253.193 416.756,253.117L416.904,253.02L417.036,252.895L417.14,252.753L417.165,252.708L441.159,207.923L441.215,207.803C441.272,207.658 441.293,207.505 441.28,207.357L441.278,207.336C441.263,207.188 441.215,207.042 441.132,206.91L441.053,206.8C440.651,206.302 440.232,205.815 439.797,205.342Z" style="fill:rgb(243,148,4);"/>
<path d="M417.129,252.77L417.171,252.697L437.657,214.46C437.847,214.105 437.805,213.669 437.551,213.357C432.674,207.364 424.961,203.483 416.284,203.483C407.606,203.483 399.893,207.364 395.016,213.357C394.762,213.669 394.72,214.105 394.91,214.46L415.402,252.708C415.576,253.033 415.915,253.236 416.284,253.236C416.284,253.236 416.799,253.299 417.129,252.77Z" style="fill:rgb(255,252,92);"/>
<path d="M436.257,211.886L414.794,251.573L415.402,252.708L415.498,252.855L415.501,252.859L415.622,252.986L415.627,252.99L415.766,253.091L415.768,253.093L415.807,253.115L415.821,253.122L415.832,253.128L415.86,253.142L415.889,253.155C415.99,253.198 416.1,253.225 416.213,253.233L416.245,253.235L416.26,253.235L416.313,253.235C416.463,253.231 416.614,253.193 416.756,253.117L416.904,253.02L417.036,252.895L417.134,252.761L417.171,252.697L437.657,214.46C437.847,214.105 437.805,213.669 437.551,213.357C437.14,212.851 436.708,212.361 436.257,211.886Z" style="fill:rgb(254,250,34);"/>
<g transform="matrix(1.01271,-0.193701,-0.180774,0.404521,153.468,164.849)">
<path d="M318.184,337.471L319.107,340.729C319.535,342.239 320.282,343.335 320.775,343.175C321.268,343.015 321.321,341.658 320.893,340.148L319.97,336.89C319.542,335.379 318.794,334.283 318.302,334.443C317.809,334.604 317.756,335.96 318.184,337.471Z" style="fill:rgb(243,148,4);"/>
</g>
<g transform="matrix(0.773726,-0.647685,0.576215,0.256347,-15.2314,354.694)">
<path d="M329.805,316.379L327.853,321.204C327.469,322.153 327.54,323.102 328.013,323.322C328.485,323.541 329.181,322.949 329.565,322L331.518,317.174C331.902,316.225 331.83,315.276 331.357,315.056C330.885,314.837 330.189,315.429 329.805,316.379Z" style="fill:rgb(243,148,4);"/>
</g>
<g transform="matrix(0.543515,-0.923433,0.861804,0.507241,-26.0986,365.561)">
<path d="M325.92,307.31L325.201,308.671C324.948,309.151 325.105,309.762 325.554,310.033C326.002,310.305 326.572,310.136 326.826,309.656L327.545,308.296C327.798,307.815 327.64,307.205 327.192,306.933C326.744,306.661 326.174,306.83 325.92,307.31Z" style="fill:rgb(243,148,4);"/>
</g>
<circle cx="406.718" cy="217.399" r="5" style="fill:rgb(240,104,45);"/>
<g transform="matrix(0.752435,0,0,0.752435,103.496,57.2071)">
<circle cx="418.057" cy="231.079" r="5" style="fill:rgb(240,104,45);"/>
</g>
<path d="M424.801,210.236C422.881,210.236 421.318,211.802 421.318,213.736C421.318,215.669 422.881,217.236 424.801,217.236C426.721,217.236 428.284,215.669 428.284,213.736C428.284,211.802 426.721,210.236 424.801,210.236Z" style="fill:rgb(240,104,45);"/>
<g transform="matrix(0.870797,0.287183,0.268017,0.61652,49.3171,-63.3117)">
<path d="M315.672,321.029L313.656,324.119C312.969,325.173 312.753,326.286 313.175,326.602C313.598,326.918 314.498,326.319 315.186,325.265L317.202,322.175C317.889,321.121 318.105,320.008 317.682,319.692C317.26,319.376 316.359,319.975 315.672,321.029Z" style="fill:rgb(243,148,4);"/>
</g>
<g transform="matrix(1.07151,0,0,1,80.7066,-94.4357)">
<path d="M312.336,303.94L310.604,305.268C310.185,305.589 310.088,306.214 310.388,306.663C310.687,307.112 311.271,307.216 311.69,306.895L313.423,305.566C313.841,305.245 313.938,304.62 313.639,304.171C313.339,303.722 312.755,303.618 312.336,303.94Z" style="fill:rgb(243,148,4);"/>
</g>
</g>
</g>
</svg>