	<svg width="24" height="24" viewBox="0 0 24 24" fill="none" xmlns="http://www.w3.org/2000/svg">
	  <g clip-path="url(#clip4)">
	    <path d="M10.8586 5.22605L5.87121 10.5543C5.50758 11.0846 5.64394 11.8069 6.17172 12.1679L11.1945 15.6099L11.1945 18.9559C11.1945 19.5922 11.6995 20.1251 12.3359 20.1377C12.9874 20.1477 13.5177 19.625 13.5177 18.9761L13.5177 15.0013C13.5177 14.6175 13.3283 14.2589 13.0126 14.0443L9.79041 11.8347L12.5025 8.95843L13.8914 12.1226C14.0758 12.5443 14.4949 12.817 14.9546 12.817L19.1844 12.817C19.8207 12.817 20.3536 12.312 20.3662 11.6756C20.3763 11.0241 19.8536 10.4938 19.2046 10.4938L15.7172 10.4938C15.2576 9.4483 14.7677 8.41295 14.3409 7.35234C14.1237 6.81699 14.0025 6.58466 13.6036 6.21598C13.5227 6.14022 12.9596 5.62507 12.4571 5.16547C11.995 4.74625 11.2828 4.77403 10.8586 5.22605Z" fill="#1EA7C5" />
	    <path d="M15.6162 5.80688C17.0861 5.80688 18.2778 4.61523 18.2778 3.14526C18.2778 1.67529 17.0861 0.483643 15.6162 0.483643C14.1462 0.483643 12.9545 1.67529 12.9545 3.14526C12.9545 4.61523 14.1462 5.80688 15.6162 5.80688Z" fill="#1EA7C5" />
	    <path d="M4.89899 23.5165C7.60463 23.5165 9.79798 21.3231 9.79798 18.6175C9.79798 15.9118 7.60463 13.7185 4.89899 13.7185C2.19335 13.7185 -1.81927e-07 15.9118 -2.13831e-07 18.6175C-2.45735e-07 21.3231 2.19335 23.5165 4.89899 23.5165Z" fill="#1EA7C5" />
	    <path d="M19.101 23.5165C21.8066 23.5165 24 21.3231 24 18.6175C24 15.9118 21.8066 13.7185 19.101 13.7185C16.3954 13.7185 14.202 15.9118 14.202 18.6175C14.202 21.3231 16.3954 23.5165 19.101 23.5165Z" fill="#1EA7C5" />
	  </g>
	  <defs>
	    <clipPath id="clip4">
	      <rect width="24" height="24" fill="white" />
	    </clipPath>
	  </defs>
	</svg>