<svg width="24" height="24" viewBox="0 0 24 24" fill="none" xmlns="http://www.w3.org/2000/svg">
  <g clip-path="url(#clip6)">
    <path d="M12 5.9999C13.6568 5.9999 14.9999 4.65677 14.9999 2.99995C14.9999 1.34312 13.6568 1.61033e-07 12 1.41496e-07C10.3431 1.21959e-07 9.00001 1.34312 9.00001 2.99995C9.00001 4.65677 10.3431 5.9999 12 5.9999Z" fill="#C046D3" />
    <path d="M17.8307 21.8297L14.1363 23.2153L15.9735 23.9042C16.7642 24.1978 17.6173 23.791 17.9048 23.0261C18.0579 22.618 18.0126 22.1905 17.8307 21.8297Z" fill="#C046D3" />
    <path d="M5.02699 16.5949C4.25285 16.3078 3.38711 16.6974 3.09565 17.473C2.80488 18.2486 3.19821 19.1128 3.97375 19.4043L5.59202 20.0111L9.86434 18.4088L5.02699 16.5949Z" fill="#C046D3" />
    <path d="M20.9047 17.473C20.6132 16.6974 19.7475 16.3078 18.9734 16.5949L6.97366 21.0948C6.19803 21.3863 5.80475 22.2505 6.09551 23.0262C6.38299 23.7908 7.23593 24.198 8.02685 23.9043L20.0266 19.4044C20.8023 19.1129 21.1956 18.2487 20.9047 17.473Z" fill="#C046D3" />
    <path d="M22.5 11.9998L18.9273 11.9998L16.3419 6.82899C16.0732 6.29213 15.5267 5.98627 14.9634 5.99991L12 5.9999L9.03685 5.99991C8.47364 5.98627 7.92779 6.29217 7.65849 6.82899L5.0731 11.9998L1.50044 11.9998C0.672112 11.9998 0.000488132 12.6714 0.000488122 13.4997C0.000488112 14.328 0.672112 14.9997 1.50044 14.9997L6.00034 14.9997C6.56869 14.9997 7.08797 14.6789 7.34208 14.1706L9.00024 10.8543L9.00024 16.483L12.0001 17.6079L15.0001 16.4827L15.0001 10.8543L16.6583 14.1706C16.9124 14.6789 17.4317 14.9997 18 14.9997L22.4999 14.9997C23.3283 14.9997 23.9999 14.328 23.9999 13.4997C23.9999 12.6714 23.3283 11.9998 22.5 11.9998Z" fill="#C046D3" />
  </g>
  <defs>
    <clipPath id="clip6">
      <rect width="24" height="24" fill="white" />
    </clipPath>
  </defs>
</svg>